<?xml version="1.0" encoding="UTF-8" standalone="no"?>
<!-- Created with Inkscape (http://www.inkscape.org/) -->

<svg
   width="210mm"
   height="297mm"
   viewBox="0 0 210 297"
   version="1.1"
   id="svg1"
   xml:space="preserve"
   sodipodi:docname="MDDOAI_Designs.svg"
   inkscape:version="1.3.2 (091e20e, 2023-11-25, custom)"
   xmlns:inkscape="http://www.inkscape.org/namespaces/inkscape"
   xmlns:sodipodi="http://sodipodi.sourceforge.net/DTD/sodipodi-0.dtd"
   xmlns:xlink="http://www.w3.org/1999/xlink"
   xmlns="http://www.w3.org/2000/svg"
   xmlns:svg="http://www.w3.org/2000/svg"><sodipodi:namedview
     id="namedview1"
     pagecolor="#505050"
     bordercolor="#eeeeee"
     borderopacity="1"
     inkscape:showpageshadow="0"
     inkscape:pageopacity="0"
     inkscape:pagecheckerboard="0"
     inkscape:deskcolor="#505050"
     inkscape:document-units="mm"
     inkscape:zoom="0.68862935"
     inkscape:cx="568.52064"
     inkscape:cy="292.61024"
     inkscape:window-width="1920"
     inkscape:window-height="991"
     inkscape:window-x="-9"
     inkscape:window-y="-9"
     inkscape:window-maximized="1"
     inkscape:current-layer="svg1"
     inkscape:lockguides="true" /><defs
     id="defs1"><linearGradient
       id="linearGradient67"
       inkscape:collect="always"><stop
         style="stop-color:#1854f9;stop-opacity:1;"
         offset="0"
         id="stop67" /><stop
         style="stop-color:#7bf1ff;stop-opacity:1;"
         offset="1"
         id="stop68" /></linearGradient><linearGradient
       inkscape:collect="always"
       xlink:href="#linearGradient67"
       id="linearGradient68"
       x1="148.88211"
       y1="164.84348"
       x2="209.05983"
       y2="164.84348"
       gradientUnits="userSpaceOnUse"
       gradientTransform="translate(-15.888752,34.725846)" /><linearGradient
       inkscape:collect="always"
       xlink:href="#linearGradient67"
       id="linearGradient91"
       gradientUnits="userSpaceOnUse"
       gradientTransform="matrix(0.83056492,0,0,0.98099753,-116.2179,87.01672)"
       x1="148.88211"
       y1="164.84348"
       x2="209.05983"
       y2="164.84348" /></defs><g
     style="fill:#000000"
     id="g2"
     transform="matrix(3.9729398,0,0,3.8234295,-4.5015154,-21.811014)"><path
       d="m 20.288,9.463 a 4.856,4.856 0 0 0 -4.336,-2.3 4.586,4.586 0 0 0 -3.343,1.767 c 0.071,0.116 0.148,0.226 0.212,0.347 l 0.879,1.652 0.134,-0.254 a 2.71,2.71 0 0 1 2.206,-1.519 2.845,2.845 0 1 1 0,5.686 2.708,2.708 0 0 1 -2.205,-1.518 L 13.131,12 11.938,9.74 a 4.709,4.709 0 0 0 -3.89,-2.581 4.845,4.845 0 1 0 0,9.682 4.586,4.586 0 0 0 3.343,-1.767 C 11.32,14.958 11.243,14.848 11.179,14.727 L 10.3,13.071 10.166,13.325 a 2.71,2.71 0 0 1 -2.206,1.519 2.855,2.855 0 0 1 -2.559,-1.369 2.825,2.825 0 0 1 0,-2.946 2.862,2.862 0 0 1 2.442,-1.374 h 0.121 a 2.708,2.708 0 0 1 2.205,1.518 l 0.7,1.327 1.193,2.26 a 4.709,4.709 0 0 0 3.89,2.581 h 0.209 a 4.846,4.846 0 0 0 4.127,-7.378 z"
       id="path1" /></g><path
     fill="var(--ci-primary-color, #000000)"
     d="m 39.470894,118.08987 a 6.3529278,6.5669759 0 0 0 -8.984282,0 l -2.755018,2.84773 -2.755185,-2.84802 a 6.3529278,6.5669759 0 1 0 0,9.28711 l 2.754902,-2.84778 2.755016,2.84778 a 6.3529278,6.5669759 0 1 0 8.984567,-9.28682 z m -15.777946,7.96035 a 4.5378054,4.6906974 0 1 1 0,-6.6337 l 3.131085,3.23658 v 0.16101 z m 14.494202,0 a 4.5378054,4.6906974 0 0 1 -6.417361,0 l -3.131087,-3.23658 v -0.16089 l 3.131087,-3.23658 a 4.5379232,4.6908191 0 1 1 6.417361,6.63405 z"
     class="ci-primary"
     id="path1-4"
     style="fill:#0044a9;fill-opacity:1;stroke-width:0.05767" /><path
     sodipodi:type="star"
     style="fill:#aeceff;fill-opacity:1;stroke-width:0.264583"
     id="path2"
     inkscape:flatsided="false"
     sodipodi:sides="4"
     sodipodi:cx="45.721863"
     sodipodi:cy="133.32343"
     sodipodi:r1="14.677152"
     sodipodi:r2="5.7240891"
     sodipodi:arg1="0.6461189"
     sodipodi:arg2="1.4315171"
     inkscape:rounded="0.2"
     inkscape:randomized="0"
     d="m 57.440491,142.16042 c -1.369657,1.81629 -8.671156,-3.48415 -10.923957,-3.16834 -2.2528,0.31582 -7.815385,7.41963 -9.631669,6.04997 -1.816284,-1.36965 3.484152,-8.67115 3.168339,-10.92395 -0.315813,-2.2528 -7.419626,-7.81539 -6.049969,-9.63167 1.369657,-1.81629 8.671156,3.48415 10.923956,3.16834 2.252801,-0.31582 7.815386,-7.41963 9.63167,-6.04997 1.816284,1.36965 -3.484152,8.67115 -3.168339,10.92395 0.315813,2.2528 7.419626,7.81539 6.049969,9.63167 z"
     transform="matrix(-0.28625793,-0.04480687,0.04354064,-0.2945828,35.01312,163.99254)" /><path
     id="path5"
     style="fill:#000000;fill-opacity:1;stroke:#000000;stroke-width:0;stroke-linecap:square;stroke-linejoin:miter;stroke-dasharray:none;stroke-opacity:1"
     d="m 24.47423,120.92891 c -0.115022,0.003 -0.304382,0.253 -0.485658,0.56404 0.274766,0.42296 0.539545,0.96569 0.543456,1.12681 0.0039,0.16118 -0.234319,0.71652 -0.488343,1.15238 0.196246,0.30209 0.397559,0.54305 0.512639,0.54026 0.276204,-0.007 0.980704,-1.44022 0.974,-1.71643 -0.0067,-0.2762 -0.77989,-1.67377 -1.056094,-1.66706 z" /><path
     id="path7"
     style="fill:#000000;fill-opacity:1;stroke:#000000;stroke-width:0;stroke-linecap:square;stroke-linejoin:miter;stroke-dasharray:none;stroke-opacity:1"
     d="m 30.939273,121.00021 c 0.115023,0.003 0.304382,0.25301 0.485657,0.56405 -0.274766,0.42295 -0.539544,0.96568 -0.543455,1.12681 -0.0039,0.16118 0.234319,0.71652 0.488344,1.15238 -0.196246,0.30209 -0.39756,0.54305 -0.51264,0.54026 -0.276204,-0.007 -0.980704,-1.44023 -0.974,-1.71643 0.0067,-0.27621 0.77989,-1.67377 1.056094,-1.66707 z" /><path
     fill="var(--ci-primary-color, #000000)"
     d="m 39.55714,135.97556 a 6.253152,6.4638388 0 0 0 -8.843182,0 l -2.711748,2.803 -2.711914,-2.80329 a 6.253152,6.4638388 0 1 0 0,9.14126 l 2.711635,-2.80306 2.711748,2.80306 a 6.253152,6.4638388 0 1 0 8.843461,-9.14097 z m -15.530148,7.83533 a 4.4665371,4.6170278 0 1 1 0,-6.52952 l 3.08191,3.18575 v 0.15848 z m 14.266565,0 a 4.4665371,4.6170278 0 0 1 -6.316574,0 l -3.081912,-3.18576 v -0.15835 l 3.081912,-3.18576 a 4.4666538,4.6171484 0 1 1 6.316574,6.52987 z"
     class="ci-primary"
     id="path8"
     style="fill:#0044a9;fill-opacity:1;stroke-width:0.0567643" /><path
     sodipodi:type="star"
     style="fill:#aeceff;fill-opacity:1;stroke:#000000;stroke-width:0.655058;stroke-dasharray:none;stroke-opacity:0"
     id="path9"
     inkscape:flatsided="false"
     sodipodi:sides="4"
     sodipodi:cx="45.721863"
     sodipodi:cy="133.32343"
     sodipodi:r1="14.677152"
     sodipodi:r2="5.7240891"
     sodipodi:arg1="0.6461189"
     sodipodi:arg2="1.4315171"
     inkscape:rounded="0.2"
     inkscape:randomized="0"
     d="m 57.440491,142.16042 c -1.369657,1.81629 -8.671156,-3.48415 -10.923957,-3.16834 -2.2528,0.31582 -7.815385,7.41963 -9.631669,6.04997 -1.816284,-1.36965 3.484152,-8.67115 3.168339,-10.92395 -0.315813,-2.2528 -7.419626,-7.81539 -6.049969,-9.63167 1.369657,-1.81629 8.671156,3.48415 10.923956,3.16834 2.252801,-0.31582 7.815386,-7.41963 9.63167,-6.04997 1.816284,1.36965 -3.484152,8.67115 -3.168339,10.92395 0.315813,2.2528 7.419626,7.81539 6.049969,9.63167 z"
     transform="matrix(-0.18284155,-0.23125807,0.2316387,-0.18339844,5.5359818,175.50772)" /><path
     id="path11"
     style="fill:#000000;fill-opacity:1;stroke:#000000;stroke-width:0;stroke-linecap:square;stroke-linejoin:miter;stroke-dasharray:none;stroke-opacity:1"
     d="m 29.694437,135.58627 c -7.56e-4,0.11324 -0.243683,0.30396 -0.546629,0.48778 -0.42104,-0.26302 -0.959777,-0.51414 -1.118413,-0.51518 -0.158692,-0.001 -0.701071,0.2431 -1.125593,0.5007 -0.300718,-0.18786 -0.54137,-0.38178 -0.540628,-0.49509 0.0018,-0.27194 1.400277,-0.99026 1.672217,-0.98848 0.271941,0.002 1.660826,0.73833 1.659046,1.01027 z" /><path
     id="path12"
     style="fill:#000000;fill-opacity:1;stroke:#000000;stroke-width:0;stroke-linecap:square;stroke-linejoin:miter;stroke-dasharray:none;stroke-opacity:1"
     d="m 29.793693,145.28725 c -7.57e-4,-0.11325 -0.243683,-0.30397 -0.546628,-0.48779 -0.42104,0.26303 -0.959777,0.51414 -1.118413,0.51518 -0.158693,0.001 -0.701071,-0.2431 -1.125593,-0.50069 -0.300719,0.18786 -0.54137,0.38178 -0.540627,0.49508 0.0018,0.27194 1.400276,0.99026 1.672216,0.98849 0.271941,-0.002 1.660825,-0.73833 1.659045,-1.01027 z" /><path
     id="path13"
     style="fill:#000000;fill-opacity:1;stroke:#000000;stroke-width:0;stroke-linecap:square;stroke-linejoin:miter;stroke-dasharray:none;stroke-opacity:1"
     d="m 32.962012,138.75458 c -0.113249,6.3e-4 -0.303966,0.24369 -0.487791,0.54663 0.263031,0.42104 0.514144,0.95978 0.515182,1.11841 9.45e-4,0.1587 -0.243098,0.70107 -0.500696,1.1256 0.187864,0.30071 0.381782,0.54137 0.495087,0.54062 0.271938,-0.002 0.990265,-1.40027 0.988487,-1.67221 -0.0017,-0.27194 -0.738331,-1.66082 -1.010269,-1.65905 z" /><path
     id="path14"
     style="fill:#000000;fill-opacity:1;stroke:#000000;stroke-width:0;stroke-linecap:square;stroke-linejoin:miter;stroke-dasharray:none;stroke-opacity:1"
     d="m 23.161769,138.85384 c 0.113249,6.3e-4 0.303967,0.24368 0.487792,0.54663 -0.263031,0.42103 -0.514145,0.95978 -0.515182,1.11841 -9.45e-4,0.15869 0.243098,0.70107 0.500695,1.1256 -0.187864,0.30071 -0.381782,0.54137 -0.495086,0.54062 -0.271939,-0.002 -0.990265,-1.40027 -0.988488,-1.67222 0.0017,-0.27194 0.738331,-1.66082 1.010269,-1.65904 z" /><path
     fill="var(--ci-primary-color, #000000)"
     d="m 41.931107,161.37566 a 6.253152,6.4638388 0 0 0 -8.843181,0 l -2.711749,2.803 -2.711914,-2.80329 a 6.253152,6.4638388 0 1 0 0,9.14126 l 2.711635,-2.80306 2.711748,2.80306 a 6.253152,6.4638388 0 1 0 8.843461,-9.14097 z M 26.400959,169.211 a 4.4665371,4.6170278 0 1 1 0,-6.52953 l 3.081911,3.18575 v 0.15848 z m 14.266565,0 a 4.4665371,4.6170278 0 0 1 -6.316573,0 l -3.081913,-3.18576 v -0.15836 l 3.081913,-3.18575 a 4.4666535,4.6171481 0 1 1 6.316573,6.52987 z"
     class="ci-primary"
     id="path15"
     style="fill:#0044a9;fill-opacity:1;stroke-width:0.0567643" /><path
     sodipodi:type="star"
     style="fill:#aeceff;fill-opacity:1;stroke:#000000;stroke-width:0.655058;stroke-dasharray:none;stroke-opacity:0"
     id="path16"
     inkscape:flatsided="false"
     sodipodi:sides="4"
     sodipodi:cx="45.721863"
     sodipodi:cy="133.32343"
     sodipodi:r1="14.677152"
     sodipodi:r2="5.7240891"
     sodipodi:arg1="0.6461189"
     sodipodi:arg2="1.4315171"
     inkscape:rounded="0.2"
     inkscape:randomized="0"
     d="m 57.440491,142.16042 c -1.369657,1.81629 -8.671156,-3.48415 -10.923957,-3.16834 -2.2528,0.31582 -7.815385,7.41963 -9.631669,6.04997 -1.816284,-1.36965 3.484152,-8.67115 3.168339,-10.92395 -0.315813,-2.2528 -7.419626,-7.81539 -6.049969,-9.63167 1.369657,-1.81629 8.671156,3.48415 10.923956,3.16834 2.252801,-0.31582 7.815386,-7.41963 9.63167,-6.04997 1.816284,1.36965 -3.484152,8.67115 -3.168339,10.92395 0.315813,2.2528 7.419626,7.81539 6.049969,9.63167 z"
     transform="matrix(-0.12160405,-0.15380485,0.154058,-0.12197442,15.362374,189.20747)" /><path
     id="path17"
     style="fill:#000000;fill-opacity:1;stroke:#000000;stroke-width:0;stroke-linecap:square;stroke-linejoin:miter;stroke-dasharray:none;stroke-opacity:1"
     d="m 31.977614,161.59163 c -7.56e-4,0.11325 -0.243683,0.30397 -0.546629,0.48779 -0.42104,-0.26303 -0.959777,-0.51414 -1.118413,-0.51518 -0.158692,-0.001 -0.701071,0.2431 -1.125593,0.5007 -0.300718,-0.18787 -0.54137,-0.38179 -0.540628,-0.49509 0.0018,-0.27194 1.400277,-0.99026 1.672218,-0.98849 0.27194,0.002 1.660825,0.73833 1.659045,1.01027 z" /><path
     fill="var(--ci-primary-color, #000000)"
     d="m 42.145101,179.39397 a 6.253152,6.4638388 0 0 0 -8.843181,0 l -2.711749,2.803 -2.711914,-2.80329 a 6.253152,6.4638388 0 1 0 0,9.14126 l 2.711635,-2.80306 2.711748,2.80306 a 6.253152,6.4638388 0 1 0 8.843461,-9.14097 z m -15.530148,7.83533 a 4.4665371,4.6170278 0 1 1 0,-6.52952 l 3.081911,3.18574 v 0.15849 z m 14.266565,0 a 4.4665371,4.6170278 0 0 1 -6.316573,0 l -3.081913,-3.18576 v -0.15836 l 3.081913,-3.18575 a 4.4666535,4.6171481 0 1 1 6.316573,6.52987 z"
     class="ci-primary"
     id="path20"
     style="fill:#0044a9;fill-opacity:1;stroke-width:0.0567643" /><path
     sodipodi:type="star"
     style="fill:#aeceff;fill-opacity:1;stroke:#000000;stroke-width:0.655058;stroke-dasharray:none;stroke-opacity:0"
     id="path21"
     inkscape:flatsided="false"
     sodipodi:sides="4"
     sodipodi:cx="45.721863"
     sodipodi:cy="133.32343"
     sodipodi:r1="14.677152"
     sodipodi:r2="5.7240891"
     sodipodi:arg1="0.6461189"
     sodipodi:arg2="1.4315171"
     inkscape:rounded="0.2"
     inkscape:randomized="0"
     d="m 57.440491,142.16042 c -1.369657,1.81629 -8.671156,-3.48415 -10.923957,-3.16834 -2.2528,0.31582 -7.815385,7.41963 -9.631669,6.04997 -1.816284,-1.36965 3.484152,-8.67115 3.168339,-10.92395 -0.315813,-2.2528 -7.419626,-7.81539 -6.049969,-9.63167 1.369657,-1.81629 8.671156,3.48415 10.923956,3.16834 2.252801,-0.31582 7.815386,-7.41963 9.63167,-6.04997 1.816284,1.36965 -3.484152,8.67115 -3.168339,10.92395 0.315813,2.2528 7.419626,7.81539 6.049969,9.63167 z"
     transform="matrix(0.03563534,-0.23855506,0.23910043,0.03555072,-2.8753996,190.12544)" /><path
     id="path22"
     style="fill:#000000;fill-opacity:1;stroke:#000000;stroke-width:0;stroke-linecap:square;stroke-linejoin:miter;stroke-dasharray:none;stroke-opacity:1"
     d="m 40.665776,176.35723 c -7.56e-4,0.11324 -0.243683,0.30396 -0.54663,0.48779 -0.421039,-0.26303 -0.959776,-0.51415 -1.118412,-0.51519 -0.158693,-10e-4 -0.701071,0.2431 -1.125593,0.5007 -0.300719,-0.18786 -0.54137,-0.38178 -0.540628,-0.49509 0.0018,-0.27194 1.400277,-0.99026 1.672217,-0.98848 0.271941,0.002 1.660826,0.73833 1.659046,1.01027 z" /><path
     fill="var(--ci-primary-color, #000000)"
     d="m 77.539732,161.29007 a 6.253152,6.4638388 0 0 0 -8.843183,0 l -2.711749,2.80299 -2.711913,-2.80328 a 6.253152,6.4638388 0 1 0 0,9.14125 l 2.711635,-2.80305 2.71175,2.80305 a 6.253152,6.4638388 0 1 0 8.84346,-9.14096 z m -15.530149,7.83533 a 4.4665371,4.6170278 0 1 1 0,-6.52952 l 3.08191,3.18574 v 0.15849 z m 14.266562,0 a 4.4665371,4.6170278 0 0 1 -6.31657,0 l -3.081913,-3.18576 v -0.15836 l 3.081913,-3.18575 a 4.4666535,4.6171481 0 1 1 6.31657,6.52987 z"
     class="ci-primary"
     id="path23"
     style="fill:#0044a9;fill-opacity:1;stroke-width:0.0567643" /><path
     sodipodi:type="star"
     style="fill:#aeceff;fill-opacity:1;stroke:#000000;stroke-width:0.655058;stroke-dasharray:none;stroke-opacity:0"
     id="path24"
     inkscape:flatsided="false"
     sodipodi:sides="4"
     sodipodi:cx="45.721863"
     sodipodi:cy="133.32343"
     sodipodi:r1="14.677152"
     sodipodi:r2="5.7240891"
     sodipodi:arg1="0.6461189"
     sodipodi:arg2="1.4315171"
     inkscape:rounded="0.2"
     inkscape:randomized="0"
     d="m 57.440491,142.16042 c -1.369657,1.81629 -8.671156,-3.48415 -10.923957,-3.16834 -2.2528,0.31582 -7.815385,7.41963 -9.631669,6.04997 -1.816284,-1.36965 3.484152,-8.67115 3.168339,-10.92395 -0.315813,-2.2528 -7.419626,-7.81539 -6.049969,-9.63167 1.369657,-1.81629 8.671156,3.48415 10.923956,3.16834 2.252801,-0.31582 7.815386,-7.41963 9.63167,-6.04997 1.816284,1.36965 -3.484152,8.67115 -3.168339,10.92395 0.315813,2.2528 7.419626,7.81539 6.049969,9.63167 z"
     transform="matrix(-0.12160405,-0.15380485,0.154058,-0.12197442,50.970997,189.12188)" /><path
     id="path25"
     style="fill:#000000;fill-opacity:1;stroke:#000000;stroke-width:0;stroke-linecap:square;stroke-linejoin:miter;stroke-dasharray:none;stroke-opacity:1"
     d="m 60.262509,158.54023 c -7.56e-4,0.11325 -0.243683,0.30397 -0.546629,0.48779 -0.421039,-0.26303 -0.959777,-0.51414 -1.118412,-0.51518 -0.158693,-0.001 -0.701071,0.2431 -1.125593,0.50069 -0.300719,-0.18786 -0.541371,-0.38178 -0.540628,-0.49508 0.0018,-0.27194 1.400276,-0.99027 1.672217,-0.98849 0.271941,0.002 1.660826,0.73833 1.659045,1.01027 z" /><path
     id="path26"
     style="fill:#000000;fill-opacity:1;stroke:#000000;stroke-width:0;stroke-linecap:square;stroke-linejoin:miter;stroke-dasharray:none;stroke-opacity:1"
     d="m 74.758648,158.44944 c -6.3e-4,0.11325 -0.243683,0.30397 -0.546631,0.48779 -0.421034,-0.26303 -0.959775,-0.51414 -1.118411,-0.51518 -0.158691,-0.001 -0.701069,0.2431 -1.125594,0.50069 -0.300717,-0.18786 -0.541369,-0.38178 -0.540626,-0.49508 0.0019,-0.27194 1.400274,-0.99026 1.672219,-0.98849 0.271939,0.002 1.660827,0.73833 1.659043,1.01027 z" /><path
     id="path27"
     style="fill:#000000;fill-opacity:1;stroke:#000000;stroke-width:0;stroke-linecap:square;stroke-linejoin:miter;stroke-dasharray:none;stroke-opacity:1"
     d="m 24.384098,176.2967 c -7.56e-4,0.11325 -0.243683,0.30397 -0.546629,0.48779 -0.421039,-0.26303 -0.959777,-0.51414 -1.118412,-0.51518 -0.158693,-10e-4 -0.701071,0.2431 -1.125593,0.5007 -0.300719,-0.18786 -0.541371,-0.38179 -0.540628,-0.49509 0.0018,-0.27194 1.400276,-0.99026 1.672217,-0.98849 0.271941,0.002 1.660826,0.73833 1.659045,1.01027 z" /><path
     fill="var(--ci-primary-color, #000000)"
     d="m 76.854951,179.09437 a 6.253152,6.4638388 0 0 0 -8.843183,0 l -2.711749,2.803 -2.711913,-2.80329 a 6.253152,6.4638388 0 1 0 0,9.14126 l 2.711634,-2.80306 2.711748,2.80306 a 6.253152,6.4638388 0 1 0 8.843463,-9.14097 z m -15.530149,7.83534 a 4.4665371,4.6170278 0 1 1 0,-6.52953 l 3.08191,3.18575 v 0.15848 z m 14.266563,0 a 4.4665371,4.6170278 0 0 1 -6.316571,0 l -3.081914,-3.18576 v -0.15836 l 3.081914,-3.18575 a 4.4666535,4.6171481 0 1 1 6.316571,6.52987 z"
     class="ci-primary"
     id="path28"
     style="fill:#0044a9;fill-opacity:1;stroke-width:0.0567643" /><path
     id="path31"
     style="fill:#000000;fill-opacity:1;stroke:#000000;stroke-width:0;stroke-linecap:square;stroke-linejoin:miter;stroke-dasharray:none;stroke-opacity:1"
     d="m 67.01173,178.90743 c -7.57e-4,0.11325 -0.243684,0.30397 -0.54663,0.48779 -0.421039,-0.26303 -0.959777,-0.51414 -1.118412,-0.51518 -0.158693,-0.001 -0.701071,0.2431 -1.125593,0.50069 -0.300719,-0.18786 -0.541371,-0.38178 -0.540628,-0.49508 0.0018,-0.27194 1.400276,-0.99026 1.672217,-0.98849 0.271941,0.002 1.660826,0.73833 1.659046,1.01027 z" /><path
     sodipodi:type="star"
     style="fill:#edffae;fill-opacity:1;stroke:#000000;stroke-width:0.655058;stroke-dasharray:none;stroke-opacity:0"
     id="path32"
     inkscape:flatsided="false"
     sodipodi:sides="4"
     sodipodi:cx="45.721863"
     sodipodi:cy="133.32343"
     sodipodi:r1="14.677152"
     sodipodi:r2="5.7240891"
     sodipodi:arg1="0.6461189"
     sodipodi:arg2="1.4315171"
     inkscape:rounded="0.2"
     inkscape:randomized="0"
     d="m 57.440491,142.16042 c -1.369657,1.81629 -8.671156,-3.48415 -10.923957,-3.16834 -2.2528,0.31582 -7.815385,7.41963 -9.631669,6.04997 -1.816284,-1.36965 3.484152,-8.67115 3.168339,-10.92395 -0.315813,-2.2528 -7.419626,-7.81539 -6.049969,-9.63167 1.369657,-1.81629 8.671156,3.48415 10.923956,3.16834 2.252801,-0.31582 7.815386,-7.41963 9.63167,-6.04997 1.816284,1.36965 -3.484152,8.67115 -3.168339,10.92395 0.315813,2.2528 7.419626,7.81539 6.049969,9.63167 z"
     transform="matrix(0.04961975,-0.33217142,0.3329308,0.04950192,18.66387,192.22233)" /><path
     sodipodi:type="star"
     style="fill:#aeceff;fill-opacity:1;stroke:#000000;stroke-width:0.655058;stroke-dasharray:none;stroke-opacity:0"
     id="path29"
     inkscape:flatsided="false"
     sodipodi:sides="4"
     sodipodi:cx="45.721863"
     sodipodi:cy="133.32343"
     sodipodi:r1="14.677152"
     sodipodi:r2="5.7240891"
     sodipodi:arg1="0.6461189"
     sodipodi:arg2="1.4315171"
     inkscape:rounded="0.2"
     inkscape:randomized="0"
     d="m 57.440491,142.16042 c -1.369657,1.81629 -8.671156,-3.48415 -10.923957,-3.16834 -2.2528,0.31582 -7.815385,7.41963 -9.631669,6.04997 -1.816284,-1.36965 3.484152,-8.67115 3.168339,-10.92395 -0.315813,-2.2528 -7.419626,-7.81539 -6.049969,-9.63167 1.369657,-1.81629 8.671156,3.48415 10.923956,3.16834 2.252801,-0.31582 7.815386,-7.41963 9.63167,-6.04997 1.816284,1.36965 -3.484152,8.67115 -3.168339,10.92395 0.315813,2.2528 7.419626,7.81539 6.049969,9.63167 z"
     transform="matrix(0.03563534,-0.23855506,0.23910043,0.03555072,31.79165,189.82584)" /><path
     fill="var(--ci-primary-color, #000000)"
     d="m 41.246327,198.18265 a 6.253152,6.4638388 0 0 0 -8.843183,0 l -2.711749,2.803 -2.711913,-2.80329 a 6.253152,6.4638388 0 1 0 0,9.14126 l 2.711635,-2.80306 2.711748,2.80306 a 6.253152,6.4638388 0 1 0 8.843462,-9.14097 z m -15.530149,7.83533 a 4.4665371,4.6170278 0 1 1 0,-6.52952 l 3.08191,3.18575 v 0.15848 z m 14.266563,0 a 4.4665371,4.6170278 0 0 1 -6.31657,0 l -3.081914,-3.18576 v -0.15835 l 3.081914,-3.18576 a 4.4666535,4.6171481 0 1 1 6.31657,6.52987 z"
     class="ci-primary"
     id="path33"
     style="fill:#0044a9;fill-opacity:1;stroke-width:0.0567643" /><path
     sodipodi:type="star"
     style="fill:#edffae;fill-opacity:1;stroke:#000000;stroke-width:0.655058;stroke-dasharray:none;stroke-opacity:0"
     id="path35"
     inkscape:flatsided="false"
     sodipodi:sides="4"
     sodipodi:cx="45.721863"
     sodipodi:cy="133.32343"
     sodipodi:r1="14.677152"
     sodipodi:r2="5.7240891"
     sodipodi:arg1="0.6461189"
     sodipodi:arg2="1.4315171"
     inkscape:rounded="0.2"
     inkscape:randomized="0"
     d="m 57.440491,142.16042 c -1.369657,1.81629 -8.671156,-3.48415 -10.923957,-3.16834 -2.2528,0.31582 -7.815385,7.41963 -9.631669,6.04997 -1.816284,-1.36965 3.484152,-8.67115 3.168339,-10.92395 -0.315813,-2.2528 -7.419626,-7.81539 -6.049969,-9.63167 1.369657,-1.81629 8.671156,3.48415 10.923956,3.16834 2.252801,-0.31582 7.815386,-7.41963 9.63167,-6.04997 1.816284,1.36965 -3.484152,8.67115 -3.168339,10.92395 0.315813,2.2528 7.419626,7.81539 6.049969,9.63167 z"
     transform="matrix(0.04961975,-0.33217142,0.3329308,0.04950192,-16.944753,211.3106)" /><path
     sodipodi:type="star"
     style="fill:#aeceff;fill-opacity:1;stroke:#000000;stroke-width:0.655058;stroke-dasharray:none;stroke-opacity:0"
     id="path36"
     inkscape:flatsided="false"
     sodipodi:sides="4"
     sodipodi:cx="45.721863"
     sodipodi:cy="133.32343"
     sodipodi:r1="14.677152"
     sodipodi:r2="5.7240891"
     sodipodi:arg1="0.6461189"
     sodipodi:arg2="1.4315171"
     inkscape:rounded="0.2"
     inkscape:randomized="0"
     d="m 57.440491,142.16042 c -1.369657,1.81629 -8.671156,-3.48415 -10.923957,-3.16834 -2.2528,0.31582 -7.815385,7.41963 -9.631669,6.04997 -1.816284,-1.36965 3.484152,-8.67115 3.168339,-10.92395 -0.315813,-2.2528 -7.419626,-7.81539 -6.049969,-9.63167 1.369657,-1.81629 8.671156,3.48415 10.923956,3.16834 2.252801,-0.31582 7.815386,-7.41963 9.63167,-6.04997 1.816284,1.36965 -3.484152,8.67115 -3.168339,10.92395 0.315813,2.2528 7.419626,7.81539 6.049969,9.63167 z"
     transform="matrix(0.03563534,-0.23855506,0.23910043,0.03555072,-3.8169733,208.91412)" /><path
     id="path34"
     style="fill:#000000;fill-opacity:1;stroke:#000000;stroke-width:0;stroke-linecap:square;stroke-linejoin:miter;stroke-dasharray:none;stroke-opacity:1"
     d="m 28.589045,204.37401 c -0.11315,0.005 -0.315449,-0.22863 -0.513773,-0.52229 0.242261,-0.43332 0.466901,-0.98362 0.460232,-1.14212 -0.0065,-0.15857 -0.276875,-0.68843 -0.554794,-1.09994 0.173028,-0.30948 0.355028,-0.55927 0.468234,-0.56404 0.271703,-0.0115 1.057128,1.35051 1.068567,1.62222 0.01132,0.27171 -0.656762,1.69474 -0.928466,1.70617 z" /><path
     id="path37"
     style="fill:#000000;fill-opacity:1;stroke:#000000;stroke-width:0;stroke-linecap:square;stroke-linejoin:miter;stroke-dasharray:none;stroke-opacity:1"
     d="m 30.694855,204.40427 c 0.11315,0.005 0.31545,-0.22862 0.513773,-0.52228 -0.24226,-0.43332 -0.466901,-0.98362 -0.460232,-1.14212 0.0065,-0.15857 0.276875,-0.68843 0.554794,-1.09994 -0.173028,-0.30949 -0.355028,-0.55928 -0.468234,-0.56404 -0.271703,-0.0115 -1.057128,1.3505 -1.068566,1.62221 -0.01132,0.27171 0.656761,1.69474 0.928465,1.70617 z" /><path
     fill="var(--ci-primary-color, #000000)"
     d="m 108.61168,178.88038 a 6.253152,6.4638388 0 0 0 -8.843181,0 l -2.71175,2.803 -2.711914,-2.80329 a 6.253152,6.4638388 0 1 0 0,9.14126 l 2.711637,-2.80306 2.711744,2.80306 a 6.253152,6.4638388 0 1 0 8.843464,-9.14097 z m -15.530148,7.83533 a 4.4665371,4.6170278 0 1 1 0,-6.52952 l 3.081907,3.18575 v 0.15848 z m 14.266568,0 a 4.4665371,4.6170278 0 0 1 -6.31658,0 l -3.081909,-3.18576 v -0.15835 l 3.081909,-3.18576 a 4.4666559,4.6171506 0 1 1 6.31658,6.52987 z"
     class="ci-primary"
     id="path38"
     style="fill:#0044a9;fill-opacity:1;stroke-width:0.0567643" /><path
     id="path39"
     style="fill:#e4f1f6;fill-opacity:1;stroke:#000000;stroke-width:0;stroke-linecap:square;stroke-linejoin:miter;stroke-dasharray:none;stroke-opacity:1"
     d="m 95.458595,179.13393 c 6.3e-4,-0.11325 0.243684,-0.30397 0.546631,-0.48779 0.42104,0.26303 0.959776,0.51414 1.118411,0.51518 0.158692,0.001 0.70107,-0.2431 1.125594,-0.50069 0.300717,0.18786 0.54137,0.38178 0.540626,0.49508 -0.0019,0.27194 -1.400274,0.99027 -1.672219,0.98849 -0.271938,-0.002 -1.660826,-0.73833 -1.659043,-1.01027 z" /><path
     sodipodi:type="star"
     style="fill:#72bcff;fill-opacity:1;stroke:#000000;stroke-width:0.655058;stroke-dasharray:none;stroke-opacity:0"
     id="path40"
     inkscape:flatsided="false"
     sodipodi:sides="4"
     sodipodi:cx="45.721863"
     sodipodi:cy="133.32343"
     sodipodi:r1="14.677152"
     sodipodi:r2="5.7240891"
     sodipodi:arg1="0.6461189"
     sodipodi:arg2="1.4315171"
     inkscape:rounded="0.2"
     inkscape:randomized="0"
     d="m 57.440491,142.16042 c -1.369657,1.81629 -8.671156,-3.48415 -10.923957,-3.16834 -2.2528,0.31582 -7.815385,7.41963 -9.631669,6.04997 -1.816284,-1.36965 3.484152,-8.67115 3.168339,-10.92395 -0.315813,-2.2528 -7.419626,-7.81539 -6.049969,-9.63167 1.369657,-1.81629 8.671156,3.48415 10.923956,3.16834 2.252801,-0.31582 7.815386,-7.41963 9.63167,-6.04997 1.816284,1.36965 -3.484152,8.67115 -3.168339,10.92395 0.315813,2.2528 7.419626,7.81539 6.049969,9.63167 z"
     transform="matrix(0.04961975,-0.33217142,0.3329308,0.04950192,50.420599,192.00834)" /><path
     id="path42"
     style="fill:#e4f1f6;fill-opacity:1;stroke:#000000;stroke-width:0;stroke-linecap:square;stroke-linejoin:miter;stroke-dasharray:none;stroke-opacity:1"
     d="m 95.3302,187.4672 c 6.3e-4,0.11325 0.243684,0.30397 0.546631,0.48779 0.42104,-0.26303 0.959776,-0.51414 1.118411,-0.51518 0.158692,-0.001 0.70107,0.2431 1.125594,0.50069 0.300717,-0.18786 0.54137,-0.38178 0.540626,-0.49508 -0.0019,-0.27194 -1.400274,-0.99027 -1.672219,-0.98849 -0.271939,0.002 -1.660826,0.73833 -1.659043,1.01027 z" /><path
     id="path43"
     style="fill:#e4f1f6;fill-opacity:1;stroke:#000000;stroke-width:0;stroke-linecap:square;stroke-linejoin:miter;stroke-dasharray:none;stroke-opacity:1"
     d="m 93.46048,181.66703 c -0.113247,6.3e-4 -0.303969,0.24369 -0.48779,0.54663 0.263029,0.42104 0.514142,0.95978 0.515181,1.11841 0.0013,0.1587 -0.243097,0.70107 -0.500694,1.1256 0.18786,0.30072 0.381782,0.54137 0.495086,0.54063 0.271939,-0.002 0.990261,-1.40028 0.988484,-1.67222 -0.0019,-0.27194 -0.738329,-1.66083 -1.010267,-1.65905 z" /><path
     id="path44"
     style="fill:#e4f1f6;fill-opacity:1;stroke:#000000;stroke-width:0;stroke-linecap:square;stroke-linejoin:miter;stroke-dasharray:none;stroke-opacity:1"
     d="m 100.61679,181.73123 c 0.11324,6.3e-4 0.30396,0.24368 0.48779,0.54663 -0.26303,0.42104 -0.51415,0.95978 -0.51519,1.11841 -10e-4,0.15869 0.2431,0.70107 0.5007,1.1256 -0.18786,0.30071 -0.38178,0.54137 -0.49509,0.54062 -0.27194,-0.002 -0.990259,-1.40027 -0.988482,-1.67222 0.0019,-0.27194 0.738332,-1.66082 1.010272,-1.65904 z" /><path
     fill="var(--ci-primary-color, #000000)"
     d="m 108.49063,194.55679 a 6.253152,6.4638388 0 0 0 -8.843185,0 l -2.71175,2.803 -2.711914,-2.80329 a 6.253152,6.4638388 0 1 0 0,9.14126 l 2.711637,-2.80306 2.711743,2.80306 a 6.253152,6.4638388 0 1 0 8.843469,-9.14097 z m -15.530152,7.83533 a 4.4665371,4.6170278 0 1 1 0,-6.52952 l 3.081907,3.18575 v 0.15848 z m 14.266562,0 a 4.4665371,4.6170278 0 0 1 -6.31657,0 l -3.081913,-3.18576 v -0.15835 l 3.081913,-3.18576 a 4.4666535,4.6171481 0 1 1 6.31657,6.52987 z"
     class="ci-primary"
     id="path45"
     style="fill:#0044a9;fill-opacity:1;stroke-width:0.0567643" /><path
     id="path46"
     style="fill:#e4f1f6;fill-opacity:1;stroke:#000000;stroke-width:0;stroke-linecap:square;stroke-linejoin:miter;stroke-dasharray:none;stroke-opacity:1"
     d="m 95.187747,204.69687 c 6.3e-4,-0.11325 0.243683,-0.30397 0.546631,-0.48779 0.42104,0.26302 0.959775,0.51414 1.118411,0.51518 0.158691,0.001 0.701069,-0.2431 1.125594,-0.5007 0.300717,0.18786 0.541369,0.38179 0.540626,0.49509 -0.0019,0.27194 -1.400274,0.99026 -1.672219,0.98848 -0.271939,-0.002 -1.660827,-0.73833 -1.659043,-1.01026 z" /><path
     sodipodi:type="star"
     style="fill:#72bcff;fill-opacity:1;stroke:#000000;stroke-width:0.655058;stroke-dasharray:none;stroke-opacity:0"
     id="path47"
     inkscape:flatsided="false"
     sodipodi:sides="4"
     sodipodi:cx="45.721863"
     sodipodi:cy="133.32343"
     sodipodi:r1="14.677152"
     sodipodi:r2="5.7240891"
     sodipodi:arg1="0.6461189"
     sodipodi:arg2="1.4315171"
     inkscape:rounded="0.2"
     inkscape:randomized="0"
     d="m 57.440491,142.16042 c -1.369657,1.81629 -8.671156,-3.48415 -10.923957,-3.16834 -2.2528,0.31582 -7.815385,7.41963 -9.631669,6.04997 -1.816284,-1.36965 3.484152,-8.67115 3.168339,-10.92395 -0.315813,-2.2528 -7.419626,-7.81539 -6.049969,-9.63167 1.369657,-1.81629 8.671156,3.48415 10.923956,3.16834 2.252801,-0.31582 7.815386,-7.41963 9.63167,-6.04997 1.816284,1.36965 -3.484152,8.67115 -3.168339,10.92395 0.315813,2.2528 7.419626,7.81539 6.049969,9.63167 z"
     transform="matrix(0.2734621,-0.1949832,0.19559535,0.27392666,58.375089,171.49117)" /><path
     id="path48"
     style="fill:#e4f1f6;fill-opacity:1;stroke:#000000;stroke-width:0;stroke-linecap:square;stroke-linejoin:miter;stroke-dasharray:none;stroke-opacity:1"
     d="m 95.487342,193.62088 c 6.3e-4,0.11324 0.243684,0.30396 0.546631,0.48778 0.42104,-0.26302 0.959776,-0.51414 1.118411,-0.51518 0.158692,-0.001 0.701069,0.2431 1.125594,0.5007 0.300717,-0.18786 0.54137,-0.38178 0.540626,-0.49509 -0.0019,-0.27194 -1.400274,-0.99026 -1.672219,-0.98848 -0.271939,0.002 -1.660826,0.73833 -1.659043,1.01027 z" /><path
     id="path49"
     style="fill:#e4f1f6;fill-opacity:1;stroke:#000000;stroke-width:0;stroke-linecap:square;stroke-linejoin:miter;stroke-dasharray:none;stroke-opacity:1"
     d="m 102.54118,197.49324 c -0.11325,6.3e-4 -0.30397,0.24368 -0.48779,0.54663 0.26303,0.42104 0.51414,0.95977 0.51518,1.11841 0.001,0.15869 -0.2431,0.70107 -0.5007,1.12559 0.18786,0.30072 0.38179,0.54137 0.49509,0.54063 0.27194,-0.002 0.99026,-1.40028 0.98848,-1.67222 -0.002,-0.27194 -0.73832,-1.66083 -1.01026,-1.65904 z" /><path
     id="path50"
     style="fill:#e4f1f6;fill-opacity:1;stroke:#000000;stroke-width:0;stroke-linecap:square;stroke-linejoin:miter;stroke-dasharray:none;stroke-opacity:1"
     d="m 91.529378,197.34344 c 0.113247,6.3e-4 0.303968,0.24369 0.48779,0.54663 -0.263029,0.42104 -0.514142,0.95978 -0.515182,1.11841 -0.0013,0.1587 0.243098,0.70107 0.500695,1.1256 -0.187861,0.30071 -0.381783,0.54137 -0.495087,0.54062 -0.271938,-0.002 -0.990261,-1.40027 -0.988484,-1.67222 0.0019,-0.27193 0.738329,-1.66082 1.010268,-1.65904 z" /><path
     fill="var(--ci-primary-color, #000000)"
     d="m 124.96084,154.05706 a 6.253152,6.4638388 0 0 0 -8.84319,0 l -2.71175,2.803 -2.71191,-2.80329 a 6.253152,6.4638388 0 1 0 0,9.14126 l 2.71164,-2.80306 2.71174,2.80306 a 6.253152,6.4638388 0 1 0 8.84347,-9.14097 z m -15.53015,7.83533 a 4.4665371,4.6170278 0 1 1 0,-6.52952 l 3.0819,3.18575 v 0.15848 z m 14.26656,0 a 4.4665371,4.6170278 0 0 1 -6.31657,0 l -3.08191,-3.18576 v -0.15835 l 3.08191,-3.18576 a 4.4666535,4.6171481 0 1 1 6.31657,6.52987 z"
     class="ci-primary"
     id="path51"
     style="fill:#0044a9;fill-opacity:1;stroke-width:0.0567643" /><path
     sodipodi:type="star"
     style="fill:#72bcff;fill-opacity:1;stroke:#000000;stroke-width:0.655058;stroke-dasharray:none;stroke-opacity:0"
     id="path53"
     inkscape:flatsided="false"
     sodipodi:sides="4"
     sodipodi:cx="45.721863"
     sodipodi:cy="133.32343"
     sodipodi:r1="14.677152"
     sodipodi:r2="5.7240891"
     sodipodi:arg1="0.6461189"
     sodipodi:arg2="1.4315171"
     inkscape:rounded="0.2"
     inkscape:randomized="0"
     d="m 57.440491,142.16042 c -1.369657,1.81629 -8.671156,-3.48415 -10.923957,-3.16834 -2.2528,0.31582 -7.815385,7.41963 -9.631669,6.04997 -1.816284,-1.36965 3.484152,-8.67115 3.168339,-10.92395 -0.315813,-2.2528 -7.419626,-7.81539 -6.049969,-9.63167 1.369657,-1.81629 8.671156,3.48415 10.923956,3.16834 2.252801,-0.31582 7.815386,-7.41963 9.63167,-6.04997 1.816284,1.36965 -3.484152,8.67115 -3.168339,10.92395 0.315813,2.2528 7.419626,7.81539 6.049969,9.63167 z"
     transform="matrix(0.16727033,-0.13235505,0.13275808,0.16754558,98.821175,138.20237)" /><path
     id="path59"
     style="fill:#e4f1f6;fill-opacity:1;stroke:#000000;stroke-width:0.500165;stroke-linecap:square;stroke-linejoin:miter;stroke-dasharray:none;stroke-opacity:0"
     d="m 116.37967,156.16497 -2.28396,2.41421 2.19181,2.67178 0.0218,-1.19766 -1.18464,-1.44384 1.23446,-1.30479 z" /><path
     id="path60"
     style="fill:#e4f1f6;fill-opacity:1;stroke:#000000;stroke-width:0.500165;stroke-linecap:square;stroke-linejoin:miter;stroke-dasharray:none;stroke-opacity:0"
     d="m 110.54397,156.07418 2.28396,2.41421 -2.19181,2.67178 -0.0218,-1.19766 1.18464,-1.44384 -1.23446,-1.30479 z" /><path
     id="path61"
     style="fill:url(#linearGradient68);fill-opacity:1;stroke-width:0.0900836"
     class="ci-primary"
     d="m 167.1993,188.27255 a 9.9235963,10.257951 0 0 0 -7.01663,3.00395 l -4.10621,4.24419 h 4.00906 l 2.10168,-2.17248 a 7.0886057,7.3274417 0 1 1 10.0242,10.36319 7.0882831,7.3271081 0 0 1 -10.0242,0 l -1.97662,-2.04329 H 156.201 l 3.98116,4.115 a 9.9235963,10.257951 0 1 0 14.03428,-14.50661 9.9235963,10.257951 0 0 0 -7.01714,-3.00395 z m -23.09937,0.0103 a 9.9235963,10.257951 0 1 0 7.47552,17.50022 l 3.98063,-4.115 h -4.00854 l -1.97714,2.04329 a 7.0882831,7.3271081 0 1 1 0,-10.36267 l 2.10116,2.17196 h 4.0101 l -4.10621,-4.24471 a 9.9235963,10.257951 0 0 0 -7.47552,-2.99309 z" /><path
     sodipodi:type="star"
     style="fill:#9be7ff;fill-opacity:1;stroke:#000000;stroke-width:0.655058;stroke-dasharray:none;stroke-opacity:0"
     id="path62"
     inkscape:flatsided="false"
     sodipodi:sides="4"
     sodipodi:cx="45.721863"
     sodipodi:cy="133.32343"
     sodipodi:r1="14.677152"
     sodipodi:r2="5.7240891"
     sodipodi:arg1="0.6461189"
     sodipodi:arg2="1.4315171"
     inkscape:rounded="0.2"
     inkscape:randomized="0"
     d="m 57.440491,142.16042 c -1.369657,1.81629 -8.671156,-3.48415 -10.923957,-3.16834 -2.2528,0.31582 -7.815385,7.41963 -9.631669,6.04997 -1.816284,-1.36965 3.484152,-8.67115 3.168339,-10.92395 -0.315813,-2.2528 -7.419626,-7.81539 -6.049969,-9.63167 1.369657,-1.81629 8.671156,3.48415 10.923956,3.16834 2.252801,-0.31582 7.815386,-7.41963 9.63167,-6.04997 1.816284,1.36965 -3.484152,8.67115 -3.168339,10.92395 0.315813,2.2528 7.419626,7.81539 6.049969,9.63167 z"
     transform="matrix(-0.29427193,0.23176936,-0.23247606,-0.29475689,200.29733,217.1638)" /><rect
     style="fill:#9be7ff;fill-opacity:1;stroke:#9be7ff;stroke-width:0.926042;stroke-linecap:round;stroke-linejoin:round;stroke-dasharray:none;stroke-opacity:1"
     id="rect64"
     width="26.414942"
     height="1.6329236"
     x="141.34604"
     y="197.90811" /><path
     sodipodi:type="star"
     style="fill:#9be7ff;fill-opacity:1;stroke:#9be7ff;stroke-width:0.926042;stroke-linecap:round;stroke-linejoin:round;stroke-dasharray:none;stroke-opacity:1"
     id="path67"
     inkscape:flatsided="false"
     sodipodi:sides="3"
     sodipodi:cx="190.76392"
     sodipodi:cy="106.4282"
     sodipodi:r1="8.5849152"
     sodipodi:r2="5.0651002"
     sodipodi:arg1="0.70619909"
     sodipodi:arg2="1.7533966"
     inkscape:rounded="0.2"
     inkscape:randomized="0"
     d="m 197.29561,111.99935 c -0.97015,1.13742 -5.98135,-0.31879 -7.45145,-0.59026 -1.47011,-0.27146 -6.67089,-0.70097 -7.17085,-2.10985 -0.49996,-1.40888 3.26676,-5.0206 4.23691,-6.15802 0.97014,-1.13742 3.9425,-5.426675 5.41261,-5.15521 1.4701,0.271466 2.71459,5.3394 3.21454,6.74828 0.49996,1.40888 2.72839,6.12765 1.75824,7.26506 z"
     inkscape:transform-center-x="-1.6001616"
     inkscape:transform-center-y="9.3179727"
     transform="matrix(0.52444415,-0.45369441,0.4670117,0.48724583,17.003662,233.2522)" /><path
     sodipodi:type="star"
     style="fill:#9be7ff;fill-opacity:1;stroke:#000000;stroke-width:0.655058;stroke-dasharray:none;stroke-opacity:0"
     id="path69"
     inkscape:flatsided="false"
     sodipodi:sides="4"
     sodipodi:cx="45.721863"
     sodipodi:cy="133.32343"
     sodipodi:r1="14.677152"
     sodipodi:r2="5.7240891"
     sodipodi:arg1="0.6461189"
     sodipodi:arg2="1.4315171"
     inkscape:rounded="0.2"
     inkscape:randomized="0"
     d="m 57.440491,142.16042 c -1.369657,1.81629 -8.671156,-3.48415 -10.923957,-3.16834 -2.2528,0.31582 -7.815385,7.41963 -9.631669,6.04997 -1.816284,-1.36965 3.484152,-8.67115 3.168339,-10.92395 -0.315813,-2.2528 -7.419626,-7.81539 -6.049969,-9.63167 1.369657,-1.81629 8.671156,3.48415 10.923956,3.16834 2.252801,-0.31582 7.815386,-7.41963 9.63167,-6.04997 1.816284,1.36965 -3.484152,8.67115 -3.168339,10.92395 0.315813,2.2528 7.419626,7.81539 6.049969,9.63167 z"
     transform="matrix(-0.18542946,0.14604474,-0.14649005,-0.18573505,149.83691,120.91046)" /><rect
     style="fill:#9be7ff;fill-opacity:1;stroke:#9be7ff;stroke-width:0.583526;stroke-linecap:round;stroke-linejoin:round;stroke-dasharray:none;stroke-opacity:1"
     id="rect69"
     width="16.644836"
     height="1.0289536"
     x="104.39064"
     y="113.81707" /><path
     sodipodi:type="star"
     style="fill:#9be7ff;fill-opacity:1;stroke:#9be7ff;stroke-width:0.926042;stroke-linecap:round;stroke-linejoin:round;stroke-dasharray:none;stroke-opacity:1"
     id="path70"
     inkscape:flatsided="false"
     sodipodi:sides="3"
     sodipodi:cx="190.76392"
     sodipodi:cy="106.4282"
     sodipodi:r1="8.5849152"
     sodipodi:r2="5.0651002"
     sodipodi:arg1="0.70619909"
     sodipodi:arg2="1.7533966"
     inkscape:rounded="0.2"
     inkscape:randomized="0"
     d="m 197.29561,111.99935 c -0.97015,1.13742 -5.98135,-0.31879 -7.45145,-0.59026 -1.47011,-0.27146 -6.67089,-0.70097 -7.17085,-2.10985 -0.49996,-1.40888 3.26676,-5.0206 4.23691,-6.15802 0.97014,-1.13742 3.9425,-5.426675 5.41261,-5.15521 1.4701,0.271466 2.71459,5.3394 3.21454,6.74828 0.49996,1.40888 2.72839,6.12765 1.75824,7.26506 z"
     inkscape:transform-center-x="-1.0083081"
     inkscape:transform-center-y="5.8715282"
     transform="matrix(0.33046779,-0.28588629,0.2942779,0.30702803,26.038825,136.08842)" /><g
     id="path71"
     style="opacity:1"
     transform="matrix(0.63012962,0,0,0.63012962,-28.645863,22.74473)"><path
       style="baseline-shift:baseline;display:inline;overflow:visible;vector-effect:none;fill:#9be7ff;stroke-linecap:round;stroke-linejoin:round;enable-background:accumulate;stop-color:#000000;stop-opacity:1"
       d="m 123.50822,115.46324 a 9.610775,9.0674095 0 0 0 -9.61078,9.06714 9.610775,9.0674095 0 0 0 9.61078,9.06767 9.610775,9.0674095 0 0 0 8.54367,-4.95526 9.610775,9.0674095 0 0 0 8.54315,4.95526 9.610775,9.0674095 0 0 0 9.61078,-9.06767 9.610775,9.0674095 0 0 0 -9.61078,-9.06714 9.610775,9.0674095 0 0 0 -8.54315,4.95525 9.610775,9.0674095 0 0 0 -8.54367,-4.95525 z m 0.10594,2.04845 a 7.3648963,6.9485064 0 0 1 7.36493,6.94841 7.3648963,6.9485064 0 0 1 -7.36493,6.94893 7.3648963,6.9485064 0 0 1 -7.36441,-6.94893 7.3648963,6.9485064 0 0 1 7.36441,-6.94841 z m 17.08681,0 a 7.3648963,6.9485064 0 0 1 7.36493,6.94841 7.3648963,6.9485064 0 0 1 -7.36493,6.94893 7.3648963,6.9485064 0 0 1 -7.36441,-6.94893 7.3648963,6.9485064 0 0 1 7.36441,-6.94841 z"
       id="path86" /><path
       style="baseline-shift:baseline;display:inline;overflow:visible;vector-effect:none;fill:#9be7ff;stroke-linecap:round;stroke-linejoin:round;enable-background:accumulate;stop-color:#000000;stop-opacity:1"
       d="m 123.50781,115 c -5.54386,0 -10.07405,4.25834 -10.07422,9.53125 -1.6e-4,5.27313 4.53014,9.5293 10.07422,9.5293 a 0.46306731,0.46306731 0 0 0 0.002,0 c 3.53005,-0.008 6.72753,-1.80502 8.54101,-4.64649 1.81326,2.84191 5.01269,4.63869 8.54297,4.64649 a 0.46306731,0.46306731 0 0 0 0.002,0 c 5.54409,0 10.07243,-4.25617 10.07227,-9.5293 C 150.6678,119.25834 146.13956,115 140.5957,115 a 0.46306731,0.46306731 0 0 0 -0.002,0 c -3.53042,0.008 -6.72975,1.80633 -8.54297,4.64844 -1.81344,-2.84166 -5.01082,-4.64083 -8.54101,-4.64844 a 0.46306731,0.46306731 0 0 0 -0.002,0 z m 0,0.92578 c 3.44488,0.007 6.5853,1.83635 8.13672,4.71289 a 0.46306731,0.46306731 0 0 0 0.81445,0 c 1.55135,-2.87639 4.69202,-4.70529 8.13672,-4.71289 5.07169,0 9.14634,3.86301 9.14649,8.60547 1.4e-4,4.74266 -4.07458,8.60352 -9.14649,8.60352 -3.4447,-0.008 -6.58538,-1.83454 -8.13672,-4.71094 a 0.46306731,0.46306731 0 0 0 -0.81445,0 c -1.55142,2.87655 -4.69184,4.70351 -8.13672,4.71094 -5.0719,0 -9.14663,-3.86086 -9.14648,-8.60352 1.5e-4,-4.74246 4.07479,-8.60547 9.14648,-8.60547 z m 0.10547,1.12305 c -4.30336,2.7e-4 -7.82611,3.30955 -7.82617,7.41211 -2.7e-4,4.10277 3.52258,7.40989 7.82617,7.41015 4.30381,2e-5 7.82839,-3.30718 7.82813,-7.41015 -6e-5,-4.10276 -3.52455,-7.41213 -7.82813,-7.41211 z m 17.08789,0 c -4.30336,2.7e-4 -7.82806,3.30955 -7.82812,7.41211 -2.7e-4,4.10277 3.52453,7.40989 7.82812,7.41015 4.30381,2e-5 7.82839,-3.30718 7.82813,-7.41015 -6e-5,-4.10276 -3.52455,-7.41213 -7.82813,-7.41211 z m -17.08789,0.92578 c 3.83141,-2e-5 6.90229,2.91403 6.90234,6.48633 2.4e-4,3.57249 -3.07073,6.48439 -6.90234,6.48437 -3.83142,-2.4e-4 -6.90062,-2.91206 -6.90039,-6.48437 5e-5,-3.57212 3.06918,-6.48609 6.90039,-6.48633 z m 17.08789,0 c 3.83141,-2e-5 6.90229,2.91403 6.90235,6.48633 2.3e-4,3.57249 -3.07074,6.48439 -6.90235,6.48437 -3.83142,-2.4e-4 -6.90257,-2.91206 -6.90234,-6.48437 5e-5,-3.57212 3.07113,-6.48609 6.90234,-6.48633 z"
       id="path87" /></g><path
     sodipodi:type="star"
     style="fill:#9be7ff;fill-opacity:1;stroke:#000000;stroke-width:0.655058;stroke-dasharray:none;stroke-opacity:0"
     id="path69-7"
     inkscape:flatsided="false"
     sodipodi:sides="4"
     sodipodi:cx="45.721863"
     sodipodi:cy="133.32343"
     sodipodi:r1="14.677152"
     sodipodi:r2="5.7240891"
     sodipodi:arg1="0.6461189"
     sodipodi:arg2="1.4315171"
     inkscape:rounded="0.2"
     inkscape:randomized="0"
     d="m 57.440491,142.16042 c -1.369657,1.81629 -8.671156,-3.48415 -10.923957,-3.16834 -2.2528,0.31582 -7.815385,7.41963 -9.631669,6.04997 -1.816284,-1.36965 3.484152,-8.67115 3.168339,-10.92395 -0.315813,-2.2528 -7.419626,-7.81539 -6.049969,-9.63167 1.369657,-1.81629 8.671156,3.48415 10.923956,3.16834 2.252801,-0.31582 7.815386,-7.41963 9.63167,-6.04997 1.816284,1.36965 -3.484152,8.67115 -3.168339,10.92395 0.315813,2.2528 7.419626,7.81539 6.049969,9.63167 z"
     transform="matrix(-0.17909741,0.1410576,-0.1414877,-0.17939256,110.43297,148.94128)" /><path
     sodipodi:type="star"
     style="fill:#9be7ff;fill-opacity:1;stroke:#9be7ff;stroke-width:0.926042;stroke-linecap:round;stroke-linejoin:round;stroke-dasharray:none;stroke-opacity:1"
     id="path70-7"
     inkscape:flatsided="false"
     sodipodi:sides="3"
     sodipodi:cx="190.76392"
     sodipodi:cy="106.4282"
     sodipodi:r1="8.5849152"
     sodipodi:r2="5.0651002"
     sodipodi:arg1="0.70619909"
     sodipodi:arg2="1.7533966"
     inkscape:rounded="0.2"
     inkscape:randomized="0"
     d="m 197.29561,111.99935 c -0.97015,1.13742 -5.98135,-0.31879 -7.45145,-0.59026 -1.47011,-0.27146 -6.67089,-0.70097 -7.17085,-2.10985 -0.49996,-1.40888 3.26676,-5.0206 4.23691,-6.15802 0.97014,-1.13742 3.9425,-5.426675 5.41261,-5.15521 1.4701,0.271466 2.71459,5.3394 3.21454,6.74828 0.49996,1.40888 2.72839,6.12765 1.75824,7.26506 z"
     inkscape:transform-center-x="-0.80675317"
     inkscape:transform-center-y="4.6978526"
     transform="matrix(0.26440936,-0.22873941,0.2354536,0.24565506,13.421451,155.78172)" /><g
     id="path71-6"
     transform="matrix(0.63012962,0,0,0.63012962,0.21530209,59.823841)"><path
       style="baseline-shift:baseline;display:inline;overflow:visible;vector-effect:none;fill:#9be7ff;stroke-linecap:round;stroke-linejoin:round;enable-background:accumulate;stop-color:#000000;stop-opacity:1"
       d="m 123.50822,115.46324 a 9.610775,9.0674095 0 0 0 -9.61078,9.06714 9.610775,9.0674095 0 0 0 9.61078,9.06767 9.610775,9.0674095 0 0 0 8.54367,-4.95526 9.610775,9.0674095 0 0 0 8.54315,4.95526 9.610775,9.0674095 0 0 0 9.61078,-9.06767 9.610775,9.0674095 0 0 0 -9.61078,-9.06714 9.610775,9.0674095 0 0 0 -8.54315,4.95525 9.610775,9.0674095 0 0 0 -8.54367,-4.95525 z m 0.10594,2.04845 a 7.3648963,6.9485064 0 0 1 6.46059,3.6127 h 4.16615 a 7.3648963,6.9485064 0 0 1 6.46007,-3.6127 7.3648963,6.9485064 0 0 1 7.36493,6.94841 7.3648963,6.9485064 0 0 1 -7.36493,6.94893 7.3648963,6.9485064 0 0 1 -6.54999,-3.77186 h -3.98632 a 7.3648963,6.9485064 0 0 1 -6.5505,3.77186 7.3648963,6.9485064 0 0 1 -7.36441,-6.94893 7.3648963,6.9485064 0 0 1 7.36441,-6.94841 z"
       id="path83" /><path
       id="path84"
       style="baseline-shift:baseline;display:inline;overflow:visible;vector-effect:none;fill:#9be7ff;stroke-linecap:round;stroke-linejoin:round;enable-background:accumulate;stop-color:#000000;stop-opacity:1"
       d="m 123.50771,115.00022 c -5.54386,0 -10.07415,4.25829 -10.07432,9.5312 -1.6e-4,5.27313 4.53024,9.52913 10.07432,9.52913 a 0.46306731,0.46306731 0 0 0 0.002,0 c 3.53005,-0.008 6.7276,-1.80527 8.54108,-4.64674 1.81326,2.84191 5.01287,4.63894 8.54315,4.64674 a 0.46306731,0.46306731 0 0 0 0.002,0 c 5.54409,0 10.07242,-4.256 10.07226,-9.52913 -2.6e-4,-5.27291 -4.5284,-9.5312 -10.07226,-9.5312 a 0.46306731,0.46306731 0 0 0 -0.002,0 c -2.73306,0.006 -5.26756,1.08505 -7.1143,2.89078 h 0.0269 c -0.49525,0.41042 -0.5391,1.74689 -1.36219,1.75389 -0.0303,2.7e-4 -0.0593,-0.001 -0.0879,-0.005 -0.002,0.003 -0.003,0.006 -0.005,0.008 -0.002,-0.003 -0.004,-0.006 -0.006,-0.009 -0.75681,-0.0984 -0.93496,-1.39713 -1.47794,-1.74821 h 0.0553 c -1.84629,-1.80565 -4.37942,-2.88489 -7.11223,-2.89078 a 0.46306731,0.46306731 0 0 0 -0.002,0 z m 0,0.92552 c 3.44488,0.007 6.58555,1.83635 8.13697,4.71289 a 0.46306731,0.46306731 0 0 0 0.0134,0.0233 h -1.36322 c -1.41507,-2.2284 -3.93383,-3.61319 -6.68176,-3.61322 -4.30336,2.7e-4 -7.82582,3.30991 -7.82588,7.41247 -2.7e-4,4.10277 3.52229,7.40962 7.82588,7.40988 2.8177,1.2e-4 5.38706,-1.45324 6.77736,-3.77135 h 3.53312 c 1.39021,2.31796 3.95985,3.77128 6.77736,3.77135 4.30381,2e-5 7.82873,-3.30691 7.82847,-7.40988 -6e-5,-4.10276 -3.52489,-7.41249 -7.82847,-7.41247 -2.74779,2.2e-4 -5.26629,1.38488 -6.68124,3.61322 h -1.57458 a 0.46306731,0.46306731 0 0 0 0.0139,-0.0233 c 1.55135,-2.87639 4.69175,-4.70529 8.13645,-4.71289 5.07169,0 9.14658,3.86322 9.14673,8.60568 1.4e-4,4.74266 -4.07482,8.60361 -9.14673,8.60361 -3.4447,-0.008 -6.58511,-1.83494 -8.13645,-4.71134 a 0.46306731,0.46306731 0 0 0 -0.81442,0 c -1.55142,2.87655 -4.69209,4.70391 -8.13697,4.71134 -5.0719,0 -9.14637,-3.86095 -9.14622,-8.60361 1.5e-4,-4.74246 4.07453,-8.60568 9.14622,-8.60568 z m 0.10542,2.04897 c 2.53257,3e-5 4.85559,1.30534 6.06061,3.38274 a 0.46306731,0.46306731 0 0 0 0.40049,0.23048 h 4.16615 a 0.46306731,0.46306731 0 0 0 0.4005,-0.23048 c 1.20494,-2.07726 3.5277,-3.38254 6.06009,-3.38274 3.83141,-2e-5 6.90236,2.91413 6.90242,6.48643 2.3e-4,3.57249 -3.07081,6.48438 -6.90242,6.48436 -2.59712,-6e-5 -4.96788,-1.37023 -6.14433,-3.5295 a 0.46306731,0.46306731 0 0 0 -0.40617,-0.24237 h -3.98632 a 0.46306731,0.46306731 0 0 0 -0.40618,0.24237 c -1.17653,2.15941 -3.54754,3.52961 -6.14484,3.5295 -3.83142,-2.4e-4 -6.90059,-2.91205 -6.90036,-6.48436 5e-5,-3.57212 3.06915,-6.48619 6.90036,-6.48643 z" /></g><rect
     style="fill:#9be7ff;fill-opacity:1;stroke:#9be7ff;stroke-width:0.809622;stroke-linecap:round;stroke-linejoin:round;stroke-dasharray:none;stroke-opacity:1"
     id="rect76"
     width="12.475376"
     height="1.114521"
     x="75.175255"
     y="137.98514"
     transform="matrix(0.99999378,-0.00352563,0,1,0,0)" /><g
     id="rect76-2"
     style="opacity:1"
     transform="matrix(0.6301257,-0.0022216,0,0.63012962,-11.716552,12.416697)"><path
       style="baseline-shift:baseline;display:inline;overflow:visible;vector-effect:none;fill:#9be7ff;stroke-width:2.07037;stroke-linecap:round;stroke-linejoin:round;enable-background:accumulate;stop-color:#000000;stop-opacity:1"
       d="m 136.64079,139.58361 h 40.98949 v 3.66191 h -40.98949 z"
       id="path88" /></g><rect
     style="fill:#000000;fill-opacity:1;stroke:none;stroke-width:160.817;stroke-linecap:round;stroke-linejoin:round;stroke-dasharray:none;stroke-opacity:1"
     id="rect91"
     width="35.746098"
     height="35.746098"
     x="8.6194086"
     y="228.8553" /><path
     id="path89"
     style="fill:url(#linearGradient91);fill-opacity:1;stroke-width:0.0813141"
     class="ci-primary"
     d="m 35.848611,237.64567 a 8.2421911,10.063024 0 0 0 -5.82772,2.94686 l -3.41052,4.16354 h 3.32979 l 1.74558,-2.13119 a 5.8875484,7.1882033 0 1 1 8.32575,10.16626 5.887279,7.1878744 0 0 1 -8.32575,0 l -1.64167,-2.00447 h -3.33026 l 3.30661,4.03681 a 8.2421911,10.063024 0 1 0 11.65638,-14.23095 8.2421911,10.063024 0 0 0 -5.82819,-2.94686 z m -19.18552,0.0101 a 8.2421911,10.063024 0 1 0 6.20893,17.16767 l 3.30615,-4.03681 h -3.32933 l -1.64214,2.00447 a 5.887279,7.1878744 0 1 1 0,-10.16575 l 1.74511,2.13068 h 3.33068 l -3.41047,-4.16405 a 8.2421911,10.063024 0 0 0 -6.20893,-2.93622 z" /><path
     sodipodi:type="star"
     style="fill:#9be7ff;fill-opacity:1;stroke:#000000;stroke-width:0.655058;stroke-dasharray:none;stroke-opacity:0"
     id="path90"
     inkscape:flatsided="false"
     sodipodi:sides="4"
     sodipodi:cx="45.721863"
     sodipodi:cy="133.32343"
     sodipodi:r1="14.677152"
     sodipodi:r2="5.7240891"
     sodipodi:arg1="0.6461189"
     sodipodi:arg2="1.4315171"
     inkscape:rounded="0.2"
     inkscape:randomized="0"
     d="m 57.440491,142.16042 c -1.369657,1.81629 -8.671156,-3.48415 -10.923957,-3.16834 -2.2528,0.31582 -7.815385,7.41963 -9.631669,6.04997 -1.816284,-1.36965 3.484152,-8.67115 3.168339,-10.92395 -0.315813,-2.2528 -7.419626,-7.81539 -6.049969,-9.63167 1.369657,-1.81629 8.671156,3.48415 10.923956,3.16834 2.252801,-0.31582 7.815386,-7.41963 9.63167,-6.04997 1.816284,1.36965 -3.484152,8.67115 -3.168339,10.92395 0.315813,2.2528 7.419626,7.81539 6.049969,9.63167 z"
     transform="matrix(-0.32474918,0.2557733,-0.25655323,-0.32528436,75.296681,268.13811)" /><rect
     style="fill:#9be7ff;fill-opacity:1;stroke:#9be7ff;stroke-width:1.26752;stroke-linecap:round;stroke-linejoin:round;stroke-dasharray:none;stroke-opacity:1"
     id="rect90"
     width="29.021378"
     height="2.7844913"
     x="11.508492"
     y="246.41603" /><path
     sodipodi:type="star"
     style="fill:#9be7ff;fill-opacity:1;stroke:#9be7ff;stroke-width:0.926042;stroke-linecap:round;stroke-linejoin:round;stroke-dasharray:none;stroke-opacity:1"
     id="path91"
     inkscape:flatsided="false"
     sodipodi:sides="3"
     sodipodi:cx="190.76392"
     sodipodi:cy="106.4282"
     sodipodi:r1="8.5849152"
     sodipodi:r2="5.0651002"
     sodipodi:arg1="0.70619909"
     sodipodi:arg2="1.7533966"
     inkscape:rounded="0.2"
     inkscape:randomized="0"
     d="m 197.29561,111.99935 c -0.97015,1.13742 -5.98135,-0.31879 -7.45145,-0.59026 -1.47011,-0.27146 -6.67089,-0.70097 -7.17085,-2.10985 -0.49996,-1.40888 3.26676,-5.0206 4.23691,-6.15802 0.97014,-1.13742 3.9425,-5.426675 5.41261,-5.15521 1.4701,0.271466 2.71459,5.3394 3.21454,6.74828 0.49996,1.40888 2.72839,6.12765 1.75824,7.26506 z"
     inkscape:transform-center-x="-1.3947837"
     inkscape:transform-center-y="8.1220144"
     transform="matrix(0.45713165,-0.39546262,0.40707066,0.42470773,-92.421012,277.86736)" /><path
     id="path89-1"
     style="fill:#2f60ff;fill-opacity:1;stroke-width:0.0883093"
     class="ci-primary"
     d="m 97.399815,238.38178 a 9.6934994,10.091954 0 0 0 -6.85389,2.95534 l -4.011072,4.17549 h 3.916152 l 2.05291,-2.13733 a 6.9242463,7.2088706 0 1 1 9.791765,10.1955 6.9239281,7.2085388 0 0 1 -9.791765,0 l -1.9307,-2.01025 h -3.916676 l 3.888826,4.04841 a 9.6934994,10.091954 0 1 0 13.708865,-14.27182 9.6934994,10.091954 0 0 0 -6.854415,-2.95534 z m -22.563766,0.0133 a 9.6934994,10.091954 0 1 0 7.302187,17.21705 l 3.888322,-4.04843 h -3.915519 l -1.931354,2.01019 a 6.9239281,7.2085388 0 1 1 0,-10.19494 l 2.052404,2.13677 h 3.917176 l -4.011029,-4.17601 a 9.6934994,10.091954 0 0 0 -7.302187,-2.94462 z" /><path
     style="fill:#9be7ff;fill-opacity:1;stroke:#000000;stroke-width:0.286876;stroke-dasharray:none;stroke-opacity:0"
     id="path90-4"
     d="m 79.840492,237.45323 c -0.02529,-0.99601 3.925961,-1.14771 4.614419,-1.86622 0.688532,-0.71846 0.67151,-4.66949 1.667586,-4.68968 0.996076,-0.0189 1.156821,3.928 1.876973,4.61804 0.720166,0.68998 4.671775,0.682 4.694165,1.67796 0.0253,0.99601 -3.925904,1.14771 -4.614421,1.86622 -0.688458,0.71845 -0.671436,4.66948 -1.667512,4.68967 -0.996076,0.0189 -1.156821,-3.92799 -1.876988,-4.61803 -0.720166,-0.68998 -4.671816,-0.68201 -4.694222,-1.67796 z" /><rect
     style="fill:#9be7ff;fill-opacity:1;stroke:#9be7ff;stroke-width:0.852376;stroke-linecap:round;stroke-linejoin:round;stroke-dasharray:none;stroke-opacity:1"
     id="rect90-1"
     width="18.267376"
     height="2.0004549"
     x="76.228783"
     y="247.48466" /><path
     style="fill:#9be7ff;fill-opacity:1;stroke:#9be7ff;stroke-width:0.39178;stroke-linecap:round;stroke-linejoin:round;stroke-dasharray:none;stroke-opacity:1"
     id="path91-6"
     d="m 99.778385,248.10697 c 0.0189,0.73446 -4.84611,3.63063 -5.52571,3.29117 -0.67965,-0.33983 -0.80097,-5.72529 -0.13798,-6.12026 0.66308,-0.39487 5.64708,2.09469 5.6636,2.82909 z" /><rect
     style="fill:#000000;fill-opacity:0;stroke:none;stroke-width:281.745;stroke-linecap:round;stroke-linejoin:round;stroke-dasharray:none;stroke-opacity:1"
     id="rect91-4"
     width="62.6259"
     height="62.6259"
     x="128.61365"
     y="219.72626" /><path
     id="path89-3"
     style="fill:#684aeb;fill-opacity:1;stroke-width:0.132506"
     class="ci-primary"
     d="m 176.56244,241.32579 a 14.544875,15.142748 0 0 0 -10.28409,4.43444 l -6.01853,6.26521 h 5.8761 l 3.08037,-3.20701 a 10.389671,10.816744 0 1 1 14.69229,15.29809 10.389197,10.816249 0 0 1 -14.69229,0 l -2.89704,-3.01627 h -5.87684 l 5.83512,6.07455 a 14.544875,15.142748 0 1 0 20.56981,-21.41457 14.544875,15.142748 0 0 0 -10.2849,-4.43444 z m -33.85639,0.0148 a 14.544875,15.142748 0 1 0 10.95672,25.83367 l 5.83439,-6.07455 h -5.87522 l -2.89792,3.01627 a 10.389197,10.816249 0 1 1 0,-15.29727 l 3.07962,3.20619 h 5.87759 l -6.01846,-6.26603 a 14.544875,15.142748 0 0 0 -10.95672,-4.41836 z" /><rect
     style="fill:#a45eed;fill-opacity:1;stroke:none;stroke-width:1.55323;stroke-linecap:square;stroke-linejoin:miter;stroke-dasharray:none;stroke-opacity:1"
     id="rect90-4"
     width="28.222038"
     height="4.2724657"
     x="144.37784"
     y="254.42947" /><path
     sodipodi:type="star"
     style="fill:#a45eed;fill-opacity:1;stroke-width:0.264583"
     id="path1-6"
     inkscape:flatsided="false"
     sodipodi:sides="4"
     sodipodi:cx="0.24656217"
     sodipodi:cy="0.6626358"
     sodipodi:r1="1.1711702"
     sodipodi:r2="0.35243663"
     sodipodi:arg1="1.5707963"
     sodipodi:arg2="1.8027686"
     inkscape:rounded="0.01"
     inkscape:randomized="0"
     d="m 0.2465622,1.833806 c -0.007079,0.00437 -0.0751403,-0.8222896 -0.0810243,-0.8281736 -0.008081,-0.008081 -1.08413913,-0.3332742 -1.09014597,-0.34299657 -0.004374,-0.007079 0.82228963,-0.0751403 0.82817367,-0.0810243 0.0080811,-0.008081 0.33327417,-1.08413912 0.34299654,-1.09014596 0.007079,-0.004374 0.0751403,0.82228962 0.0810243,0.82817366 0.008081,0.008081 1.08413916,0.33327418 1.09014596,0.34299654 0.00437,0.007079 -0.82228962,0.0751403 -0.82817366,0.0810243 C 0.58147768,0.7517411 0.25628456,1.8277992 0.2465622,1.833806 Z"
     transform="matrix(9.4955114,0,0,9.4955114,157.438,232.5399)" /><path
     sodipodi:type="star"
     style="fill:#a45eed;fill-opacity:1;stroke-width:0;stroke-linecap:square;stroke-linejoin:miter;stroke-dasharray:none"
     id="path2-8"
     inkscape:flatsided="true"
     sodipodi:sides="3"
     sodipodi:cx="1.0460747"
     sodipodi:cy="0.41407126"
     sodipodi:r1="0.58120936"
     sodipodi:r2="0.29060468"
     sodipodi:arg1="1.0400228"
     sodipodi:arg2="2.0872204"
     inkscape:rounded="0.01"
     inkscape:randomized="0"
     d="m 1.3402833,0.91531538 c -0.00868,0.005096 -0.87533073,-0.48700754 -0.87540295,-0.49707412 -7.223e-5,-0.0100666 0.85942625,-0.51455485 0.86818025,-0.50958411 0.00875,0.0049707 0.015904,1.00156239 0.00722,1.00665823 z"
     inkscape:transform-center-x="-1.3486531"
     inkscape:transform-center-y="-0.0014446193"
     transform="matrix(4.810924,-8.1865572,8.1865572,4.810924,164.59993,263.13392)" /></svg>
