<?xml version="1.0" encoding="UTF-8" standalone="no"?>
<!-- Created with Inkscape (http://www.inkscape.org/) -->

<svg
   width="8.4666586mm"
   height="8.4666672mm"
   viewBox="0 0 8.4666586 8.4666672"
   version="1.1"
   id="svg1"
   xml:space="preserve"
   sodipodi:docname="MDDOAI_Purple.svg"
   inkscape:version="1.3.2 (091e20e, 2023-11-25, custom)"
   inkscape:export-filename="MDDOAI_Purple.svg"
   inkscape:export-xdpi="96"
   inkscape:export-ydpi="96"
   xmlns:inkscape="http://www.inkscape.org/namespaces/inkscape"
   xmlns:sodipodi="http://sodipodi.sourceforge.net/DTD/sodipodi-0.dtd"
   xmlns="http://www.w3.org/2000/svg"
   xmlns:svg="http://www.w3.org/2000/svg"><sodipodi:namedview
     id="namedview1"
     pagecolor="#ffffff"
     bordercolor="#000000"
     borderopacity="0.25"
     inkscape:showpageshadow="2"
     inkscape:pageopacity="0.0"
     inkscape:pagecheckerboard="0"
     inkscape:deskcolor="#d1d1d1"
     inkscape:document-units="mm"
     inkscape:zoom="17.169436"
     inkscape:cx="18.463041"
     inkscape:cy="12.784346"
     inkscape:window-width="1920"
     inkscape:window-height="991"
     inkscape:window-x="-9"
     inkscape:window-y="-9"
     inkscape:window-maximized="1"
     inkscape:current-layer="svg1"
     showgrid="false" /><defs
     id="defs1" /><rect
     style="fill:#000000;fill-opacity:0;stroke:none;stroke-width:38.021;stroke-linecap:round;stroke-linejoin:round;stroke-dasharray:none;stroke-opacity:1"
     id="rect91"
     width="8.4512568"
     height="8.4512568"
     x="9.7212272e-08"
     y="-0.15410446" /><path
     id="path89"
     style="fill:#684aeb;fill-opacity:1;stroke-width:0.0178815"
     class="ci-primary"
     d="M 6.4706035,2.7607196 A 1.9628057,2.0434876 0 0 0 5.0827804,3.3591359 L 4.2705889,4.204622 h 0.7929705 l 0.415687,-0.4327795 a 1.4020681,1.4597008 0 1 1 1.9827016,2.0644523 1.4020041,1.459634 0 0 1 -1.9827016,0 L 5.0883032,5.4292496 H 4.2952302 L 5.0826651,6.2489988 A 1.9628057,2.0434876 0 1 0 7.8585293,3.3591359 1.9628057,2.0434876 0 0 0 6.4706035,2.7607196 Z m -4.5688669,0.00206 A 1.9628057,2.0434876 0 1 0 3.3803344,6.2489928 L 4.1676666,5.4292406 H 3.3748244 L 2.9837531,5.8362848 a 1.4020041,1.459634 0 1 1 0,-2.0643475 L 3.3993378,4.2046118 H 4.1925132 L 3.3803344,3.3590231 A 1.9628057,2.0434876 0 0 0 1.9017366,2.7627698 Z" /><rect
     style="fill:#a45eed;fill-opacity:1;stroke:none;stroke-width:0.209606;stroke-linecap:square;stroke-linejoin:miter;stroke-dasharray:none;stroke-opacity:1"
     id="rect90"
     width="3.8085151"
     height="0.57656187"
     x="2.1273446"
     y="4.5290303" /><path
     sodipodi:type="star"
     style="fill:#a45eed;fill-opacity:1;stroke-width:0.264583"
     id="path1"
     inkscape:flatsided="false"
     sodipodi:sides="4"
     sodipodi:cx="0.24656217"
     sodipodi:cy="0.6626358"
     sodipodi:r1="1.1711702"
     sodipodi:r2="0.35243663"
     sodipodi:arg1="1.5707963"
     sodipodi:arg2="1.8027686"
     inkscape:rounded="0.01"
     inkscape:randomized="0"
     d="m 0.2465622,1.833806 c -0.007079,0.00437 -0.0751403,-0.8222896 -0.0810243,-0.8281736 -0.008081,-0.008081 -1.08413913,-0.3332742 -1.09014597,-0.34299657 -0.004374,-0.007079 0.82228963,-0.0751403 0.82817367,-0.0810243 0.0080811,-0.008081 0.33327417,-1.08413912 0.34299654,-1.09014596 0.007079,-0.004374 0.0751403,0.82228962 0.0810243,0.82817366 0.008081,0.008081 1.08413916,0.33327418 1.09014596,0.34299654 0.00437,0.007079 -0.82228962,0.0751403 -0.82817366,0.0810243 C 0.58147768,0.7517411 0.25628456,1.8277992 0.2465622,1.833806 Z"
     transform="matrix(1.2814028,0,0,1.2814028,3.8897851,1.5750766)" /><path
     sodipodi:type="star"
     style="fill:#a45eed;fill-opacity:1;stroke-width:0;stroke-linecap:square;stroke-linejoin:miter;stroke-dasharray:none"
     id="path2"
     inkscape:flatsided="true"
     sodipodi:sides="3"
     sodipodi:cx="1.0460747"
     sodipodi:cy="0.41407126"
     sodipodi:r1="0.58120936"
     sodipodi:r2="0.29060468"
     sodipodi:arg1="1.0400228"
     sodipodi:arg2="2.0872204"
     inkscape:rounded="0.01"
     inkscape:randomized="0"
     d="m 1.3402833,0.91531538 c -0.00868,0.005096 -0.87533073,-0.48700754 -0.87540295,-0.49707412 -7.223e-5,-0.0100666 0.85942625,-0.51455485 0.86818025,-0.50958411 0.00875,0.0049707 0.015904,1.00156239 0.00722,1.00665823 z"
     inkscape:transform-center-x="-0.18199779"
     inkscape:transform-center-y="-0.00019493115"
     transform="matrix(0.64922585,-1.1047617,1.1047617,0.64922585,4.8562796,5.7036852)" /></svg>
