<?xml version="1.0" encoding="UTF-8" standalone="no"?>
<!-- Created with Inkscape (http://www.inkscape.org/) -->

<svg
   width="8.4666586mm"
   height="8.4666672mm"
   viewBox="0 0 8.4666586 8.4666672"
   version="1.1"
   id="svg1"
   xml:space="preserve"
   sodipodi:docname="MDDOAI.svg"
   inkscape:version="1.3.2 (091e20e, 2023-11-25, custom)"
   inkscape:export-filename="MDDOAI.svg"
   inkscape:export-xdpi="96"
   inkscape:export-ydpi="96"
   xmlns:inkscape="http://www.inkscape.org/namespaces/inkscape"
   xmlns:sodipodi="http://sodipodi.sourceforge.net/DTD/sodipodi-0.dtd"
   xmlns="http://www.w3.org/2000/svg"
   xmlns:svg="http://www.w3.org/2000/svg"><sodipodi:namedview
     id="namedview1"
     pagecolor="#ffffff"
     bordercolor="#000000"
     borderopacity="0.25"
     inkscape:showpageshadow="2"
     inkscape:pageopacity="0.0"
     inkscape:pagecheckerboard="0"
     inkscape:deskcolor="#d1d1d1"
     inkscape:document-units="mm"
     inkscape:zoom="8.5847178"
     inkscape:cx="10.833204"
     inkscape:cy="17.181695"
     inkscape:window-width="1920"
     inkscape:window-height="991"
     inkscape:window-x="-9"
     inkscape:window-y="-9"
     inkscape:window-maximized="1"
     inkscape:current-layer="svg1" /><defs
     id="defs1" /><rect
     style="fill:#000000;fill-opacity:0;stroke:none;stroke-width:38.0904;stroke-linecap:round;stroke-linejoin:round;stroke-dasharray:none;stroke-opacity:1"
     id="rect91"
     width="8.4666662"
     height="8.4666662"
     x="1.1421889e-07"
     y="-3.0924277e-06" /><path
     id="path89"
     style="fill:#2f60ff;fill-opacity:1;stroke-width:0.0139546"
     class="ci-primary"
     d="m 6.0823333,3.0518682 a 1.5317634,1.5947271 0 0 0 -1.08305,0.467001 l -0.63383,0.659813 h 0.61883 l 0.3244,-0.337739 a 1.0941667,1.1391429 0 1 1 1.54729,1.611088 1.0941167,1.1390908 0 0 1 -1.54729,0 l -0.30509,-0.317656 h -0.61891 l 0.61451,0.639728 a 1.5317634,1.5947271 0 1 0 2.16627,-2.255234 1.5317634,1.5947271 0 0 0 -1.08313,-0.467001 z m -3.56552,0.0016 a 1.5317634,1.5947271 0 1 0 1.15389,2.720629 l 0.61443,-0.639729 h -0.61873 l -0.30519,0.317655 a 1.0941167,1.1390908 0 1 1 0,-1.611006 l 0.32432,0.337657 h 0.61899 l -0.63382,-0.659893 a 1.5317634,1.5947271 0 0 0 -1.15389,-0.465313 z" /><rect
     style="fill:#9be7ff;fill-opacity:1;stroke:#9be7ff;stroke-width:0.136632;stroke-linecap:square;stroke-linejoin:miter;stroke-dasharray:none;stroke-opacity:1"
     id="rect90"
     width="2.9721456"
     height="0.3144795"
     x="2.6505432"
     y="4.4911156" /><path
     sodipodi:type="star"
     style="fill:#9be7ff;fill-opacity:1;stroke-width:0.264583"
     id="path1"
     inkscape:flatsided="false"
     sodipodi:sides="4"
     sodipodi:cx="0.24656217"
     sodipodi:cy="0.6626358"
     sodipodi:r1="1.1711702"
     sodipodi:r2="0.35243663"
     sodipodi:arg1="1.5707963"
     sodipodi:arg2="1.8027686"
     inkscape:rounded="0.01"
     inkscape:randomized="0"
     d="m 0.2465622,1.833806 c -0.007079,0.00437 -0.0751403,-0.8222896 -0.0810243,-0.8281736 -0.008081,-0.008081 -1.08413913,-0.3332742 -1.09014597,-0.34299657 -0.004374,-0.007079 0.82228963,-0.0751403 0.82817367,-0.0810243 0.0080811,-0.008081 0.33327417,-1.08413912 0.34299654,-1.09014596 0.007079,-0.004374 0.0751403,0.82228962 0.0810243,0.82817366 0.008081,0.008081 1.08413916,0.33327418 1.09014596,0.34299654 0.00437,0.007079 -0.82228962,0.0751403 -0.82817366,0.0810243 C 0.58147768,0.7517411 0.25628456,1.8277992 0.2465622,1.833806 Z"
     transform="translate(4.0682759,2.1265987)" /><path
     sodipodi:type="star"
     style="fill:#9be7ff;fill-opacity:1;stroke-width:0;stroke-linecap:square;stroke-linejoin:miter;stroke-dasharray:none"
     id="path2"
     inkscape:flatsided="true"
     sodipodi:sides="3"
     sodipodi:cx="1.0460747"
     sodipodi:cy="0.41407126"
     sodipodi:r1="0.58120936"
     sodipodi:r2="0.29060468"
     sodipodi:arg1="1.0400228"
     sodipodi:arg2="2.0872204"
     inkscape:rounded="0.01"
     inkscape:randomized="0"
     d="m 1.3402833,0.91531538 c -0.00868,0.005096 -0.87533073,-0.48700754 -0.87540295,-0.49707412 -7.223e-5,-0.0100666 0.85942625,-0.51455485 0.86818025,-0.50958411 0.00875,0.0049707 0.015904,1.00156239 0.00722,1.00665823 z"
     inkscape:transform-center-x="-0.14053888"
     inkscape:transform-center-y="-0.0038573685"
     transform="rotate(-58.827854,7.1123501,-1.6038309)" /></svg>
